# xmcd
#
# Track frame offsets: 
#        150
#        22227
#        42637
#        62377
#        85695
#        122045
#        142580
#        165610
#        185725
#        202327
#
# Disc length: 3060 seconds
#
# Revision: 16
# Processed by: cddbd v1.5.2PL0 Copyright (c) Steve Scherf et al.
# Submitted via: ExactAudioCopy v0.99pb4
#
DISCID=8c0bf20a
DTITLE=Chris Rea - The Road To Hell
DYEAR=1989
DGENRE=Rock
TTITLE0=The Road To Hell (Part I)
TTITLE1=The Road To Hell (Part II)
TTITLE2=You Must Be Evil
TTITLE3=Texas
TTITLE4=Looking For A Rainbow
TTITLE5=Your Warm And Tender Love
TTITLE6=Daytona
TTITLE7=That's What They Always Say
TTITLE8=I Just Wanna Be With You
TTITLE9=Tell Me There's Heaven
EXTD=1989 year
EXTT0=
EXTT1=
EXTT2=
EXTT3=
EXTT4=
EXTT5=
EXTT6=
EXTT7=
EXTT8=
EXTT9=
PLAYORDER=
